<svg width="60" height="60" viewBox="0 0 60 60" fill="#fdba74" xmlns="http://www.w3.org/2000/svg">
<path d="M26.9398 27.0508C27.3655 26.6091 27.886 26.2594 28.4685 26.0343C27.8323 24.2937 27.5388 22.4342 27.6181 20.5669C27.6253 20.3972 27.7444 20.2539 27.9106 20.2186C28.1561 20.1664 28.3769 20.369 28.3667 20.6198C28.2938 22.3989 28.5782 24.1704 29.1912 25.8269C29.453 25.7764 29.7234 25.75 29.9999 25.75C30.5025 25.75 30.9846 25.8372 31.4321 25.9974C32.6721 22.9478 34.9027 20.3778 37.8103 18.7828C37.935 18.0383 37.9999 17.2736 37.9999 16.4936C37.9999 10.9525 34.7223 6.17698 30 4C25.2776 6.17697 21.9999 10.9525 21.9999 16.4937C21.9999 20.7354 23.9206 24.5285 26.9398 27.0508Z" />
<path d="M26.6365 27.4017C24.119 25.2799 22.3638 22.3641 21.7452 19.1056C21.0758 18.7569 20.3685 18.4589 19.6268 18.2179C14.3568 16.5056 8.80216 18.1471 5.27246 21.9656C5.8836 27.1295 9.41258 31.7225 14.6825 33.4348C18.7163 34.7454 22.917 34.0911 26.2487 31.9995C25.9645 31.4674 25.7902 30.8678 25.7561 30.231C23.9038 30.2984 22.0442 30.0028 20.2925 29.3503C20.1334 29.291 20.0339 29.1334 20.0516 28.9645C20.0778 28.7149 20.3388 28.5675 20.5742 28.6547C22.2438 29.2738 24.0166 29.5507 25.7815 29.4796C25.8763 28.7028 26.1807 27.9907 26.6365 27.4017Z" />
<path d="M26.4892 32.396C23.6934 34.1345 20.3779 34.9028 17.0879 34.4841C16.5494 35.0131 16.0474 35.5936 15.5889 36.2246C12.332 40.7074 12.1767 46.4975 14.7175 51.0344C19.8175 52.0489 25.2762 50.112 28.5332 45.6291C31.0263 42.1977 31.702 38.0003 30.7423 34.1854C30.5013 34.2278 30.2532 34.25 29.9999 34.25C29.6224 34.25 29.2564 34.2008 28.908 34.1084C28.3996 35.8906 27.5439 37.5675 26.3822 39.0316C26.2767 39.1646 26.0961 39.2106 25.9409 39.1415C25.7116 39.0394 25.6521 38.7456 25.8078 38.5488C26.9124 37.1523 27.7235 35.5521 28.2013 33.8517C27.5083 33.5276 26.9172 33.0219 26.4892 32.396Z" />
<path d="M31.194 34.08C31.9832 37.276 31.6893 40.6663 30.2746 43.6657C30.6112 44.3413 31.0082 44.9982 31.4666 45.6292C34.7236 50.112 40.1823 52.049 45.2823 51.0345C47.8232 46.4975 47.6679 40.7074 44.4109 36.2246C41.9178 32.7931 38.1346 30.8534 34.2097 30.5873C34.1229 31.215 33.8991 31.7989 33.5694 32.3078C35.1074 33.3421 36.438 34.6741 37.4715 36.2315C37.5654 36.3731 37.5533 36.559 37.4397 36.6852C37.2717 36.8718 36.9739 36.8376 36.8348 36.6287C35.8479 35.1464 34.5763 33.8802 33.1065 32.9003C32.5931 33.45 31.9355 33.8633 31.194 34.08Z" />
<path d="M34.2481 30.1251C37.532 30.3619 40.666 31.6892 43.0817 33.9617C43.8282 33.8503 44.5756 33.6758 45.3174 33.4348C50.5873 31.7225 54.1162 27.1295 54.7274 21.9656C51.1977 18.1471 45.643 16.5056 40.3731 18.2179C36.3393 19.5285 33.3255 22.527 31.8595 26.1773C32.4185 26.4498 32.9088 26.8412 33.2975 27.3187C34.7565 26.1754 36.4347 25.3215 38.2353 24.8198C38.3989 24.7742 38.5721 24.8432 38.657 24.9903C38.7825 25.2077 38.658 25.4803 38.4163 25.5481C36.7018 26.0286 35.1049 26.8465 33.7189 27.9413C34.0573 28.5512 34.2499 29.2531 34.2499 30C34.2499 30.0418 34.2493 30.0836 34.2481 30.1251Z" />
<path d="M29.9999 33.75C32.071 33.75 33.7499 32.0711 33.7499 30C33.7499 27.9289 32.071 26.25 29.9999 26.25C27.9289 26.25 26.2499 27.9289 26.2499 30C26.2499 32.0711 27.9289 33.75 29.9999 33.75Z" />
</svg>
