<svg width="64" height="64" viewBox="0 0 64 64" fill="none" xmlns="http://www.w3.org/2000/svg">
<path d="M11.9999 52.0001C11.9999 46.4772 16.477 42.0001 21.9999 42.0001H31.9999V52.0001C31.9999 57.5229 27.5227 62.0001 21.9999 62.0001V62.0001C16.477 62.0001 11.9999 57.5229 11.9999 52.0001V52.0001Z" fill="#24CB71"/>
<path d="M32 2V22H42C47.5228 22 52 17.5228 52 12V12C52 6.47715 47.5228 2 42 2L32 2Z" fill="#FF7237"/>
<circle cx="41.9166" cy="31.9999" r="10" fill="#00B6FF"/>
<path d="M11.9999 11.9999C11.9999 17.5228 16.477 21.9999 21.9999 21.9999L31.9999 21.9999L31.9999 1.99994L21.9999 1.99994C16.477 1.99994 11.9999 6.47709 11.9999 11.9999V11.9999Z" fill="#FF3737"/>
<path d="M11.9999 32.0001C11.9999 37.5229 16.477 42.0001 21.9999 42.0001H31.9999L31.9999 22.0001L21.9999 22.0001C16.477 22.0001 11.9999 26.4772 11.9999 32.0001V32.0001Z" fill="#874FFF"/>
</svg>
