<svg width="24" height="24" viewBox="0 0 24 24" fill="currentColor" xmlns="http://www.w3.org/2000/svg">
<path d="M7.10208 18.4913C6.37159 18.4913 5.72145 18.3599 5.15167 18.0969C4.58189 17.8339 4.09977 17.4614 3.70531 16.9792C3.31084 16.4971 3.01134 15.92 2.80681 15.248C2.60227 14.5759 2.5 13.8308 2.5 13.0127C2.5 11.9462 2.66801 10.9819 3.00404 10.12C3.35467 9.25798 3.83679 8.52018 4.4504 7.90657C5.07862 7.29296 5.82372 6.82545 6.6857 6.50404C7.54767 6.16801 8.50461 6 9.55652 6C10.5646 6 11.4777 6.1461 12.2958 6.43829C13.1286 6.73049 13.8299 7.14687 14.3997 7.68743C14.984 8.21338 15.4369 8.8489 15.7584 9.594C16.0798 10.3391 16.2405 11.1646 16.2405 12.0704C16.2405 12.8593 16.1455 13.5971 15.9556 14.2837C15.7657 14.9704 15.4954 15.6059 15.1448 16.1903H18.9798V7.42445C18.9798 7.0446 19.0894 6.73049 19.3085 6.48212C19.5423 6.21915 19.8491 6.08766 20.229 6.08766C20.6088 6.08766 20.9156 6.21915 21.1494 6.48212C21.3831 6.73049 21.5 7.0446 21.5 7.42445V16.4971C21.5 17.0669 21.332 17.5125 20.996 17.8339C20.6599 18.1553 20.1997 18.316 19.6153 18.316H14.0271C13.545 18.316 13.1578 18.1918 12.8656 17.9435C12.588 17.6951 12.4492 17.3591 12.4492 16.9354C12.4492 16.6432 12.5004 16.3802 12.6027 16.1465C12.7049 15.9127 12.8364 15.6205 12.9971 15.2699C13.1578 14.9339 13.3039 14.5248 13.4354 14.0427C13.5669 13.5606 13.6326 12.9981 13.6326 12.3552C13.6326 11.727 13.5304 11.1646 13.3258 10.6678C13.1213 10.1565 12.8291 9.71819 12.4492 9.35294C12.084 8.9877 11.6311 8.71011 11.0905 8.52018C10.5646 8.31565 9.9729 8.21338 9.31546 8.21338C8.67263 8.21338 8.08824 8.30834 7.56228 8.49827C7.03633 8.6882 6.57612 8.96578 6.18166 9.33103C5.7872 9.68166 5.46578 10.1053 5.21742 10.6021C4.96905 11.0988 4.80834 11.654 4.73529 12.2676C4.99827 11.8585 5.37082 11.5225 5.85294 11.2595C6.33506 10.9819 6.89754 10.8431 7.54037 10.8431C8.08093 10.8431 8.57036 10.9381 9.00865 11.128C9.44694 11.3033 9.81949 11.559 10.1263 11.895C10.4331 12.2311 10.6669 12.6328 10.8276 13.1003C10.9883 13.5679 11.0686 14.0865 11.0686 14.6563C11.0686 15.2115 10.9737 15.7228 10.7837 16.1903C10.6084 16.6578 10.3527 17.0596 10.0167 17.3956C9.6807 17.7316 9.26432 18.0019 8.76759 18.2065C8.27086 18.3964 7.71569 18.4913 7.10208 18.4913ZM6.90484 12.7278C6.45194 12.7278 6.05017 12.8739 5.69954 13.1661C5.3489 13.4437 5.09323 13.787 4.93253 14.1961C4.97636 14.8827 5.17359 15.4452 5.52422 15.8835C5.88947 16.3218 6.37889 16.5409 6.9925 16.5409C7.51845 16.5409 7.92753 16.3656 8.21972 16.015C8.51192 15.6498 8.65802 15.2042 8.65802 14.6782C8.65802 14.0792 8.50461 13.6044 8.19781 13.2537C7.891 12.9031 7.46002 12.7278 6.90484 12.7278Z" />
</svg>
